# xmcd
#
# Track frame offsets: 
#        150
#        16671
#        27053
#        38891
#        53801
#        65223
#        79054
#        95915
#        108943
#        125044
#        136162
#        155133
#        173616
#        190318
#        211877
#
# Disc length: 3052 seconds
#
# Revision: 1
# Processed by: cddbd v1.5.2PL0 Copyright (c) Steve Scherf et al.
# Submitted via: ExactAudioCopyFreeDBPlugin 1.0
#
DISCID=cc0bea0f
DTITLE=Raphael Saadiq - The Way I See It
DYEAR=2009
DGENRE=Soul
TTITLE0=Sure Hope You Mean It
TTITLE1=100 Yard Dash
TTITLE2=Keep Marchin'
TTITLE3=Big Easy
TTITLE4=Just One Kiss (feat. Joss Stone)
TTITLE5=Love That Girl
TTITLE6=Calling
TTITLE7=Staying In Love
TTITLE8=Oh Girl
TTITLE9=Let's Take A Walk
TTITLE10=Never Give You Up (feat. Stevie Wonder and CJ Hilton)
TTITLE11=Sometimes
TTITLE12=Oh Girl (feat. Jay Z) [Bonus Track]
TTITLE13=Big Easy (Euro Version) [Bonus Track]
TTITLE14=Come On Home [Bonus Track]
EXTD=
EXTT0=
EXTT1=
EXTT2=
EXTT3=
EXTT4=
EXTT5=
EXTT6=
EXTT7=
EXTT8=
EXTT9=
EXTT10=
EXTT11=
EXTT12=
EXTT13=
EXTT14=
PLAYORDER=
